<?xml version="1.0" encoding="UTF-8" standalone="no"?> <svg width="512" height="512" viewBox="0 0 512 512" fill="none" xmlns="http://www.w3.org/2000/svg">
<path d="M448 192C448 186.397 446.896 180.849 444.752 175.672C442.608 170.495 439.465 165.792 435.503 161.83C431.541 157.868 426.838 154.725 421.661 152.581C416.484 150.437 410.936 149.333 405.333 149.333H373.333V85.333C373.332 82.2442 372.661 79.1925 371.365 76.3886C370.07 73.5848 368.181 71.0957 365.829 69.0935C363.477 67.0913 360.718 65.6236 357.744 64.792C354.769 63.9604 351.649 63.7847 348.6 64.277L83.024 107.113C71.764 108.929 61.5187 114.695 54.1236 123.379C46.7286 132.062 42.6671 143.094 42.667 154.5V405.333C42.667 416.649 47.1621 427.501 55.1635 435.503C63.1649 443.504 74.0172 448 85.333 448H405.333C410.936 448 416.484 446.896 421.661 444.752C426.838 442.608 431.541 439.465 435.503 435.503C439.465 431.541 442.608 426.838 444.752 421.661C446.896 416.484 448 410.936 448 405.333V192Z" fill="rgb(96 , 165 , 250)"/>
<path d="M341.333 341.333H458.667C461.496 341.333 464.209 340.209 466.21 338.209C468.21 336.208 469.334 333.495 469.334 330.666V266.666C469.334 263.837 468.21 261.124 466.209 259.124C464.209 257.124 461.496 256 458.667 256H341.333C330.017 256 319.165 260.495 311.163 268.497C303.161 276.499 298.666 287.351 298.666 298.667V298.667C298.666 309.983 303.162 320.835 311.163 328.836C319.165 336.838 330.017 341.333 341.333 341.333Z" fill="#fff"/>
<path d="M458.667 245.333V192C458.651 177.86 453.027 164.304 443.028 154.306C433.03 144.307 419.474 138.683 405.334 138.667H384V85.339C384 80.7056 382.995 76.1274 381.052 71.9209C379.109 67.7145 376.277 63.98 372.749 60.9756C369.222 57.9713 365.084 55.7688 360.622 54.5204C356.16 53.272 351.48 53.0074 346.906 53.745L81.3281 96.581C67.5447 98.755 54.9943 105.79 45.9468 116.413C36.8994 127.036 31.9522 140.546 32.0001 154.5V405.333C32.0178 419.472 37.6425 433.027 47.6406 443.026C57.6386 453.024 71.1938 458.648 85.3331 458.666H405.333C419.472 458.648 433.028 453.024 443.026 443.026C453.024 433.027 458.648 419.472 458.666 405.333V352C464.322 351.995 469.746 349.745 473.745 345.746C477.745 341.746 479.995 336.323 480 330.667V266.667C479.994 261.011 477.745 255.588 473.745 251.588C469.746 247.589 464.323 245.339 458.667 245.333V245.333ZM437.334 405.333C437.325 413.817 433.95 421.951 427.951 427.95C421.952 433.949 413.818 437.324 405.334 437.333H85.3341C76.85 437.324 68.7161 433.949 62.7169 427.95C56.7178 421.951 53.3434 413.817 53.3341 405.333V154.5C53.3038 145.62 56.4521 137.023 62.2097 130.263C67.9672 123.503 75.9539 119.026 84.7251 117.643L350.3 74.807C351.825 74.5606 353.385 74.6484 354.873 75.0643C356.36 75.4802 357.74 76.2143 358.916 77.2158C360.091 78.2173 361.036 79.4623 361.683 80.8647C362.331 82.2671 362.666 83.7934 362.665 85.338V138.666H85.3331C83.9237 138.652 82.5255 138.918 81.2194 139.448C79.9133 139.978 78.7252 140.762 77.7237 141.753C76.7222 142.745 75.9272 143.926 75.3847 145.227C74.8422 146.527 74.5628 147.923 74.5628 149.332C74.5628 150.742 74.8422 152.138 75.3847 153.438C75.9272 154.739 76.7222 155.92 77.7237 156.912C78.7252 157.903 79.9133 158.687 81.2194 159.217C82.5255 159.747 83.9237 160.013 85.3331 159.999H405.333C413.817 160.008 421.951 163.383 427.95 169.382C433.949 175.381 437.324 183.515 437.333 191.999V245.332H341.333C327.188 245.332 313.623 250.951 303.621 260.953C293.619 270.955 288 284.521 288 298.665C288 312.81 293.619 326.376 303.621 336.378C313.623 346.38 327.188 351.999 341.333 351.999H437.333L437.334 405.333ZM458.667 330.666H341.333C332.846 330.666 324.707 327.295 318.706 321.293C312.705 315.292 309.333 307.153 309.333 298.666C309.333 290.179 312.705 282.04 318.706 276.039C324.707 270.037 332.846 266.666 341.333 266.666H458.667V330.666Z" fill="#182f41"/>
</svg>
